<?xml version="1.0" standalone="no"?>
<!DOCTYPE svg PUBLIC "-//W3C//DTD SVG 20010904//EN"
 "http://www.w3.org/TR/2001/REC-SVG-20010904/DTD/svg10.dtd">
<svg version="1.0" xmlns="http://www.w3.org/2000/svg"
 width="256.000000pt" height="256.000000pt" viewBox="0 0 256.000000 256.000000"
 preserveAspectRatio="xMidYMid meet">
<metadata>
Created by potrace 1.14, written by Peter Selinger 2001-2017
</metadata>
<g transform="translate(0.000000,256.000000) scale(0.100000,-0.100000)"
fill="#000000" stroke="none">
<path d="M1230 2265 l0 -25 -160 0 -160 0 0 -25 c0 -21 -5 -25 -30 -25 -30 0
-30 -1 -30 -55 l0 -55 -50 0 -50 0 0 -55 c0 -54 0 -55 -30 -55 -25 0 -30 -4
-30 -25 0 -20 -5 -25 -25 -25 l-25 0 0 -295 0 -295 25 0 25 0 0 -210 0 -210
30 0 c30 0 30 -1 30 -55 0 -52 1 -55 25 -55 24 0 25 -3 25 -55 0 -52 1 -55 25
-55 23 0 25 -3 25 -50 0 -49 1 -50 30 -50 30 0 30 -1 30 -55 0 -54 0 -55 -30
-55 -25 0 -30 -4 -30 -25 l0 -25 -105 0 -105 0 0 -30 0 -30 -185 0 -185 0 0
-25 c0 -25 -1 -25 -80 -25 -79 0 -80 0 -80 -25 0 -21 -5 -25 -30 -25 -27 0
-30 -3 -30 -30 0 -25 -4 -30 -25 -30 -20 0 -25 -5 -25 -25 0 -20 5 -25 25 -25
20 0 25 5 25 25 0 21 5 25 30 25 27 0 30 3 30 30 l0 30 80 0 c79 0 80 0 80 25
l0 25 185 0 185 0 0 25 0 25 105 0 105 0 0 30 c0 27 3 30 30 30 25 0 30 4 30
25 0 20 5 25 25 25 20 0 25 -5 25 -25 0 -20 5 -25 25 -25 24 0 25 -3 25 -55 0
-54 0 -55 30 -55 25 0 30 -4 30 -25 0 -23 3 -25 50 -25 l50 0 0 -110 0 -110
-25 0 c-20 0 -25 -5 -25 -25 l0 -25 215 0 215 0 0 185 0 185 25 0 c20 0 25 -5
25 -25 0 -20 5 -25 25 -25 20 0 25 5 25 25 0 20 -5 25 -25 25 -21 0 -25 5 -25
30 0 25 4 30 25 30 20 0 25 5 25 25 0 21 5 25 30 25 25 0 30 -4 30 -25 0 -23
3 -25 50 -25 49 0 50 -1 50 -30 l0 -30 135 0 135 0 0 -25 0 -25 160 0 160 0 0
-25 c0 -25 1 -25 80 -25 79 0 80 0 80 25 0 25 -1 25 -80 25 -79 0 -80 0 -80
25 l0 25 -160 0 -160 0 0 30 0 30 -135 0 -135 0 0 25 c0 23 -3 25 -50 25 l-50
0 0 80 c0 79 0 80 25 80 25 0 25 1 25 80 l0 80 55 0 55 0 0 80 c0 79 0 80 25
80 l25 0 0 295 0 295 25 0 25 0 0 105 0 105 -25 0 -25 0 0 105 0 105 -25 0
c-21 0 -25 5 -25 30 0 27 -3 30 -30 30 -25 0 -30 4 -30 25 0 23 -3 25 -50 25
-47 0 -50 2 -50 25 0 21 -5 25 -30 25 -27 0 -30 3 -30 30 0 29 -1 30 -50 30
-47 0 -50 2 -50 25 0 24 -3 25 -55 25 -52 0 -55 1 -55 25 l0 25 -105 0 -105 0
0 -25z m210 -50 c0 -24 3 -25 55 -25 54 0 55 0 55 -30 l0 -30 -110 0 -110 0 0
30 c0 29 -1 30 -50 30 -49 0 -50 -1 -50 -30 0 -27 -3 -30 -30 -30 -25 0 -30
-4 -30 -25 0 -20 -5 -25 -25 -25 -20 0 -25 5 -25 25 0 25 -1 25 -80 25 -79 0
-80 0 -80 -25 0 -20 -5 -25 -25 -25 -24 0 -25 3 -25 55 l0 55 160 0 160 0 0
25 0 25 105 0 105 0 0 -25z m210 -110 c0 -20 -5 -25 -25 -25 -20 0 -25 5 -25
25 0 20 5 25 25 25 20 0 25 -5 25 -25z m220 -160 c0 -21 -5 -25 -30 -25 -25 0
-30 4 -30 25 0 21 5 25 30 25 25 0 30 -4 30 -25z m-640 -160 l0 -25 185 0 185
0 0 -25 c0 -20 5 -25 25 -25 21 0 25 -5 25 -30 0 -27 3 -30 30 -30 l30 0 0
-80 c0 -79 0 -80 25 -80 20 0 25 -5 25 -25 0 -20 -5 -25 -25 -25 -20 0 -25 5
-25 25 l0 25 -135 0 -135 0 0 -25 c0 -20 -5 -25 -25 -25 -20 0 -25 -5 -25 -25
l0 -25 -110 0 -110 0 0 25 c0 20 -5 25 -25 25 -20 0 -25 5 -25 25 l0 25 -105
0 -105 0 0 -25 c0 -21 -5 -25 -30 -25 l-30 0 0 105 0 105 30 0 c27 0 30 3 30
30 0 25 4 30 25 30 20 0 25 5 25 25 0 24 3 25 55 25 52 0 55 1 55 25 0 25 1
25 80 25 79 0 80 0 80 -25z m-320 -585 c0 -25 4 -30 25 -30 20 0 25 -5 25 -25
0 -24 3 -25 55 -25 52 0 55 1 55 25 0 20 5 25 25 25 20 0 25 -5 25 -25 0 -20
-5 -25 -25 -25 -20 0 -25 -5 -25 -25 0 -25 -1 -25 -80 -25 l-80 0 0 -30 0 -30
105 0 105 0 0 30 c0 30 1 30 55 30 l55 0 0 80 0 80 50 0 50 0 0 -80 0 -80 30
0 c30 0 30 -1 30 -55 0 -54 0 -55 -30 -55 -25 0 -30 -4 -30 -25 l0 -25 -105 0
-105 0 0 25 c0 20 -5 25 -25 25 -24 0 -25 -3 -25 -55 0 -52 1 -55 25 -55 20 0
25 -5 25 -25 l0 -25 160 0 160 0 0 25 c0 20 5 25 25 25 24 0 25 3 25 55 0 52
-1 55 -25 55 -24 0 -25 3 -25 55 0 52 1 55 25 55 20 0 25 5 25 25 0 20 -5 25
-25 25 -20 0 -25 5 -25 25 l0 25 105 0 105 0 0 30 c0 30 1 30 55 30 54 0 55 0
55 -30 0 -25 -4 -30 -25 -30 -20 0 -25 -5 -25 -25 0 -21 -5 -25 -30 -25 -25 0
-30 -4 -30 -25 0 -24 3 -25 55 -25 52 0 55 1 55 25 0 24 3 25 55 25 l55 0 0
-80 0 -80 -30 0 c-30 0 -30 -1 -30 -55 0 -52 -1 -55 -25 -55 -21 0 -25 5 -25
30 0 25 -4 30 -25 30 l-25 0 0 -110 0 -110 -55 0 c-52 0 -55 -1 -55 -25 0 -20
-5 -25 -25 -25 l-25 0 0 -105 0 -105 -30 0 c-27 0 -30 -3 -30 -30 l0 -30 -185
0 -185 0 0 30 c0 25 -4 30 -25 30 -20 0 -25 5 -25 25 0 21 -5 25 -30 25 -25 0
-30 4 -30 25 0 20 -5 25 -25 25 -21 0 -25 5 -25 30 0 25 -4 30 -25 30 -23 0
-25 3 -25 50 0 49 -1 50 -30 50 -30 0 -30 1 -30 55 0 52 -1 55 -25 55 -24 0
-25 3 -25 55 0 52 -1 55 -25 55 l-25 0 0 105 0 105 50 0 50 0 0 55 c0 54 0 55
30 55 27 0 30 -3 30 -30z m480 -1065 c0 -24 -3 -25 -55 -25 -52 0 -55 1 -55
25 0 24 3 25 55 25 52 0 55 -1 55 -25z"/>
<path d="M850 1095 c0 -21 5 -25 30 -25 25 0 30 4 30 25 0 21 -5 25 -30 25
-25 0 -30 -4 -30 -25z"/>
<path d="M1490 1040 l0 -30 80 0 80 0 0 30 0 30 -80 0 -80 0 0 -30z"/>
<path d="M1760 985 c0 -20 5 -25 25 -25 20 0 25 5 25 25 0 20 -5 25 -25 25
-20 0 -25 -5 -25 -25z"/>
<path d="M1070 665 c0 -23 3 -25 50 -25 47 0 50 -2 50 -25 l0 -25 135 0 135 0
0 25 c0 24 3 25 55 25 52 0 55 1 55 25 l0 25 -240 0 -240 0 0 -25z"/>
<path d="M1600 135 c0 -20 5 -25 25 -25 20 0 25 5 25 25 0 20 -5 25 -25 25
-20 0 -25 -5 -25 -25z"/>
</g>
</svg>
